<svg xmlns="http://www.w3.org/2000/svg" width="16" height="16" fill="currentColor" class="bi bi-list-stars" viewBox="0 0 16 16">
  <path d="M14.5 3a.5.5 0 0 1 .5.5v9a.5.5 0 0 1-.5.5h-13a.5.5 0 0 1-.5-.5v-9a.5.5 0 0 1 .5-.5zm-13-1A1.5 1.5 0 0 0 0 3.5v9A1.5 1.5 0 0 0 1.5 14h13a1.5 1.5 0 0 0 1.5-1.5v-9A1.5 1.5 0 0 0 14.5 2z"/>
  
  <g transform="translate(2.5, 4.5)">
    <path d="M2.242 2.194a.27.27 0 0 1 .516 0l.162.53c.035.115.14.194.258.194h.551c.259 0 .37.333.164.493l-.468.363a.28.28 0 0 0-.094.3l.173.569c.078.256-.213.462-.423.3l-.417-.324a.27.27 0 0 0-.328 0l-.417.323c-.21.163-.5-.043-.423-.299l.173-.57a.28.28 0 0 0-.094-.299l-.468-.363c-.206-.16-.095-.493.164-.493h.55a.27.27 0 0 0 .259-.194z"/>
  </g>
  <g transform="translate(5.5, 4.5)">
    <path d="M2.242 2.194a.27.27 0 0 1 .516 0l.162.53c.035.115.14.194.258.194h.551c.259 0 .37.333.164.493l-.468.363a.28.28 0 0 0-.094.3l.173.569c.078.256-.213.462-.423.3l-.417-.324a.27.27 0 0 0-.328 0l-.417.323c-.21.163-.5-.043-.423-.299l.173-.57a.28.28 0 0 0-.094-.299l-.468-.363c-.206-.16-.095-.493.164-.493h.55a.27.27 0 0 0 .259-.194z"/>
  </g>
  <g transform="translate(8.5, 4.5)">
    <path d="M2.242 2.194a.27.27 0 0 1 .516 0l.162.53c.035.115.14.194.258.194h.551c.259 0 .37.333.164.493l-.468.363a.28.28 0 0 0-.094.3l.173.569c.078.256-.213.462-.423.3l-.417-.324a.27.27 0 0 0-.328 0l-.417.323c-.21.163-.5-.043-.423-.299l.173-.57a.28.28 0 0 0-.094-.299l-.468-.363c-.206-.16-.095-.493.164-.493h.55a.27.27 0 0 0 .259-.194z"/>
  </g>
</svg>
